<mxfile host="Electron" modified="2023-12-06T10:37:34.641Z" agent="Mozilla/5.0 (X11; Linux x86_64) AppleWebKit/537.36 (KHTML, like Gecko) draw.io/22.1.2 Chrome/114.0.5735.289 Electron/25.9.4 Safari/537.36" etag="kQFtd5riC5GUFXOqS048" version="22.1.2" type="device">
  <diagram name="Page-1" id="2smEruL10G2mfv5F0WW5">
    <mxGraphModel dx="1042" dy="663" grid="1" gridSize="10" guides="1" tooltips="1" connect="1" arrows="1" fold="1" page="1" pageScale="1" pageWidth="850" pageHeight="1100" math="0" shadow="0">
      <root>
        <mxCell id="0" />
        <mxCell id="1" parent="0" />
        <mxCell id="a_hJlFMY5BagxM1k5BaB-1" value="User" style="shape=umlActor;verticalLabelPosition=bottom;verticalAlign=top;html=1;outlineConnect=0;" vertex="1" parent="1">
          <mxGeometry x="250" y="160" width="30" height="60" as="geometry" />
        </mxCell>
        <mxCell id="a_hJlFMY5BagxM1k5BaB-2" value="shutdwon DAB radio moduel" style="ellipse;whiteSpace=wrap;html=1;" vertex="1" parent="1">
          <mxGeometry x="380" y="160" width="120" height="80" as="geometry" />
        </mxCell>
        <mxCell id="a_hJlFMY5BagxM1k5BaB-4" value="" style="endArrow=classic;html=1;rounded=0;" edge="1" parent="1">
          <mxGeometry relative="1" as="geometry">
            <mxPoint x="270" y="200" as="sourcePoint" />
            <mxPoint x="380" y="199.5" as="targetPoint" />
          </mxGeometry>
        </mxCell>
        <mxCell id="a_hJlFMY5BagxM1k5BaB-5" value="use" style="edgeLabel;resizable=0;html=1;align=center;verticalAlign=middle;" connectable="0" vertex="1" parent="a_hJlFMY5BagxM1k5BaB-4">
          <mxGeometry relative="1" as="geometry" />
        </mxCell>
      </root>
    </mxGraphModel>
  </diagram>
</mxfile>
